<svg xmlns="http://www.w3.org/2000/svg" xmlns:xlink="http://www.w3.org/1999/xlink" width="1920" zoomAndPan="magnify" viewBox="0 0 1440 809.999993" height="1080" preserveAspectRatio="xMidYMid meet" version="1.0"><defs><clipPath id="d3447190f4"><path d="M 504 81 L 578 81 L 578 143 L 504 143 Z M 504 81 " clip-rule="nonzero"/></clipPath><clipPath id="5a6e6688df"><path d="M 287 486 L 1031.914062 486 L 1031.914062 519 L 287 519 Z M 287 486 " clip-rule="nonzero"/></clipPath><clipPath id="5f28d574d5"><path d="M 316 529 L 1000 529 L 1000 709.5 L 316 709.5 Z M 316 529 " clip-rule="nonzero"/></clipPath></defs><g clip-path="url(#d3447190f4)"><path fill="#ffa203" d="M 513.25 83.148438 C 510.007812 84.816406 508.238281 86.585938 506.664062 89.828125 C 504.503906 93.953125 504.40625 95.230469 504.40625 118.515625 L 504.40625 142.882812 L 577.113281 142.882812 L 577.113281 118.027344 C 577.113281 94.152344 577.015625 93.167969 574.851562 89.335938 C 573.574219 87.175781 570.921875 84.523438 568.761719 83.246094 C 565.027344 81.082031 563.847656 80.984375 541.25 80.984375 C 518.652344 80.984375 517.375 81.082031 513.25 83.148438 Z M 513.25 83.148438 " fill-opacity="1" fill-rule="nonzero"/></g><path fill="#ffa203" d="M 588.902344 130.113281 L 588.902344 143.867188 L 605.902344 143.671875 L 622.800781 143.375 L 622.800781 116.847656 L 605.902344 116.550781 L 588.902344 116.355469 Z M 588.902344 130.113281 " fill-opacity="1" fill-rule="nonzero"/><path fill="#ffa203" d="M 630.167969 130.113281 L 630.167969 143.867188 L 649.820312 143.867188 L 649.820312 116.355469 L 630.167969 116.355469 Z M 630.167969 130.113281 " fill-opacity="1" fill-rule="nonzero"/><path fill="#ffa203" d="M 656.695312 130.113281 L 656.695312 143.867188 L 677.429688 143.867188 L 677.132812 130.308594 L 676.839844 116.847656 L 666.816406 116.550781 L 656.695312 116.257812 Z M 656.695312 130.113281 " fill-opacity="1" fill-rule="nonzero"/><path fill="#ffa203" d="M 684.207031 130.011719 L 684.207031 143.867188 L 699.632812 143.867188 L 702.777344 132.765625 C 704.546875 126.769531 706.117188 120.972656 706.414062 120.089844 C 707.003906 118.027344 705.527344 117.632812 693.835938 116.75 L 684.207031 116.160156 Z M 684.207031 130.011719 " fill-opacity="1" fill-rule="nonzero"/><path fill="#ffa203" d="M 712.308594 124.902344 C 710.148438 131.78125 706.804688 144.160156 706.804688 145.535156 C 706.804688 146.226562 707.394531 146.8125 708.082031 146.8125 C 708.769531 146.8125 711.03125 147.992188 713.09375 149.367188 L 716.828125 151.921875 L 726.652344 142.292969 L 736.378906 132.566406 L 733.136719 129.816406 C 729.894531 127.066406 716.925781 120.285156 714.863281 120.285156 C 714.273438 120.285156 713.191406 122.347656 712.308594 124.902344 Z M 712.308594 124.902344 " fill-opacity="1" fill-rule="nonzero"/><path fill="#ffa203" d="M 731.171875 147.304688 L 721.640625 156.441406 L 724.292969 161.453125 C 726.0625 164.695312 727.4375 166.269531 728.421875 166.070312 C 729.207031 165.777344 735.300781 164.695312 741.980469 163.417969 C 748.757812 162.238281 753.96875 160.765625 753.96875 160.175781 C 753.96875 156.933594 743.0625 137.875 741.292969 137.972656 C 740.996094 138.070312 736.378906 142.195312 731.171875 147.304688 Z M 731.171875 147.304688 " fill-opacity="1" fill-rule="nonzero"/><path fill="#ffa203" d="M 493.597656 162.535156 L 493.597656 170.394531 L 587.921875 170.394531 L 587.921875 154.675781 L 493.597656 154.675781 Z M 493.597656 162.535156 " fill-opacity="1" fill-rule="nonzero"/><path fill="#ffa203" d="M 740.703125 170.296875 C 733.726562 171.671875 728.027344 173.144531 728.226562 173.539062 C 728.324219 174.03125 728.421875 175.601562 728.421875 177.175781 L 728.421875 179.925781 L 742.078125 180.121094 C 749.644531 180.21875 755.933594 179.925781 756.128906 179.53125 C 757.011719 177.765625 755.734375 167.449219 754.65625 167.546875 C 753.96875 167.644531 747.777344 168.824219 740.703125 170.296875 Z M 740.703125 170.296875 " fill-opacity="1" fill-rule="nonzero"/><path fill="#ffa203" d="M 295.324219 173.34375 C 288.445312 175.796875 284.222656 178.453125 279.996094 183.167969 C 272.039062 192.011719 269.582031 201.148438 270.074219 220.503906 C 270.171875 226.203125 270.367188 285.742188 270.367188 352.851562 L 270.566406 474.976562 L 319.296875 474.976562 L 338.457031 464.367188 C 366.65625 448.644531 382.574219 439.214844 382.574219 438.328125 C 382.574219 437.839844 371.765625 415.535156 358.5 388.710938 L 334.429688 339.980469 L 334.429688 171.378906 L 317.527344 171.378906 C 303.382812 171.476562 299.648438 171.769531 295.324219 173.34375 Z M 295.324219 173.34375 " fill-opacity="1" fill-rule="nonzero"/><path fill="#ffa203" d="M 844.359375 327.597656 L 844.359375 474.976562 L 1017.285156 474.976562 L 1017.285156 341.550781 C 1017.285156 194.269531 1017.578125 202.328125 1011.09375 193.777344 C 1007.164062 188.570312 1000.679688 183.660156 995.863281 181.988281 C 993.113281 181.105469 974.054688 180.710938 918.34375 180.417969 L 844.359375 180.121094 Z M 984.171875 229.542969 C 985.746094 230.722656 985.84375 234.355469 986.136719 268.941406 C 986.335938 305.6875 986.234375 307.164062 984.46875 308.539062 C 982.796875 309.71875 974.054688 309.914062 931.117188 309.914062 C 881.007812 309.914062 879.632812 309.816406 877.765625 307.949219 C 875.898438 306.082031 875.800781 304.707031 875.800781 269.140625 C 875.800781 233.570312 875.898438 232.195312 877.765625 230.328125 C 879.632812 228.460938 881.007812 228.363281 931.117188 228.363281 C 970.710938 228.363281 982.894531 228.660156 984.171875 229.542969 Z M 899.382812 333.496094 L 899.382812 339.390625 L 881.695312 339.390625 L 881.695312 327.597656 L 899.382812 327.597656 Z M 926.890625 333.496094 L 926.890625 339.390625 L 909.207031 339.390625 L 909.207031 327.597656 L 926.890625 327.597656 Z M 955.1875 333.691406 L 955.484375 339.390625 L 937.699219 339.390625 L 937.699219 327.5 L 946.34375 327.796875 L 954.894531 328.089844 Z M 982.894531 333.496094 L 982.894531 339.390625 L 965.210938 339.390625 L 965.210938 327.597656 L 982.894531 327.597656 Z M 899.382812 356.09375 L 899.382812 361.988281 L 880.910156 361.988281 L 881.007812 356.09375 L 881.203125 350.195312 L 899.382812 350.195312 Z M 926.890625 356.09375 L 926.890625 361.988281 L 909.207031 361.988281 L 909.207031 350.195312 L 926.890625 350.195312 Z M 955.386719 356.09375 L 955.386719 361.988281 L 937.699219 361.988281 L 937.699219 350.195312 L 955.386719 350.195312 Z M 982.894531 356.09375 L 982.894531 361.988281 L 965.210938 361.988281 L 965.210938 350.195312 L 982.894531 350.195312 Z M 899.382812 378.691406 L 899.382812 384.585938 L 880.714844 384.585938 L 880.714844 372.796875 L 899.382812 372.796875 Z M 926.890625 378.691406 L 926.890625 384.585938 L 909.207031 384.585938 L 909.207031 372.796875 L 926.890625 372.796875 Z M 955.386719 378.691406 L 955.386719 384.585938 L 937.699219 384.585938 L 937.699219 372.796875 L 955.386719 372.796875 Z M 982.894531 378.691406 L 982.894531 384.585938 L 965.210938 384.585938 L 965.210938 372.796875 L 982.894531 372.796875 Z M 982.894531 378.691406 " fill-opacity="1" fill-rule="nonzero"/><path fill="#ffa203" d="M 930.625 239.859375 L 887.589844 240.152344 L 887.589844 298.125 L 930.332031 298.125 C 953.8125 298.125 973.363281 298.222656 973.855469 298.320312 C 974.25 298.515625 974.640625 285.253906 974.839844 268.84375 C 974.9375 252.535156 974.742188 239.269531 974.347656 239.367188 C 973.855469 239.566406 954.207031 239.761719 930.625 239.859375 Z M 967.175781 269.140625 L 967.175781 291.246094 L 894.46875 291.246094 L 894.46875 247.03125 L 967.175781 247.03125 Z M 967.175781 269.140625 " fill-opacity="1" fill-rule="nonzero"/><path fill="#ffa203" d="M 486.71875 254.792969 L 486.71875 327.304688 L 526.316406 327.109375 C 548.03125 327.007812 572.296875 326.8125 580.355469 326.8125 L 594.796875 326.617188 L 594.796875 182.183594 L 486.71875 182.183594 Z M 566.699219 200.066406 C 568.074219 202.03125 568.269531 208.8125 568.269531 254.597656 C 568.269531 305.6875 568.171875 307.0625 566.304688 308.929688 C 564.4375 310.796875 563.0625 310.894531 540.957031 310.894531 C 521.402344 310.894531 517.277344 310.601562 515.410156 309.324219 L 513.25 307.851562 L 513.25 254.695312 C 513.25 206.550781 513.445312 201.34375 514.917969 199.675781 C 516.390625 198.101562 518.554688 197.90625 540.855469 197.90625 C 564.929688 197.90625 565.222656 197.90625 566.699219 200.066406 Z M 566.699219 200.066406 " fill-opacity="1" fill-rule="nonzero"/><path fill="#ffa203" d="M 525.039062 253.910156 L 525.039062 299.105469 L 556.480469 299.105469 L 556.480469 208.714844 L 525.039062 208.714844 Z M 525.039062 253.910156 " fill-opacity="1" fill-rule="nonzero"/><path fill="#ffa203" d="M 346.21875 198.886719 L 346.21875 206.75 L 474.929688 206.75 L 474.929688 191.027344 L 346.21875 191.027344 Z M 346.21875 198.886719 " fill-opacity="1" fill-rule="nonzero"/><path fill="#ffa203" d="M 606.589844 198.886719 L 606.589844 206.75 L 833.550781 206.75 L 833.550781 191.027344 L 606.589844 191.027344 Z M 606.589844 198.886719 " fill-opacity="1" fill-rule="nonzero"/><path fill="#ffa203" d="M 346.21875 255.382812 L 346.21875 289.28125 L 474.929688 289.28125 L 474.929688 221.484375 L 346.21875 221.484375 Z M 346.21875 255.382812 " fill-opacity="1" fill-rule="nonzero"/><path fill="#ffa203" d="M 606.589844 255.382812 L 606.589844 289.28125 L 833.550781 289.28125 L 833.550781 221.484375 L 606.589844 221.484375 Z M 606.589844 255.382812 " fill-opacity="1" fill-rule="nonzero"/><path fill="#ffa203" d="M 346.21875 311.878906 L 346.21875 319.738281 L 474.929688 319.738281 L 474.929688 304.019531 L 346.21875 304.019531 Z M 346.21875 311.878906 " fill-opacity="1" fill-rule="nonzero"/><path fill="#ffa203" d="M 606.589844 311.878906 L 606.589844 319.738281 L 833.550781 319.738281 L 833.550781 304.019531 L 606.589844 304.019531 Z M 606.589844 311.878906 " fill-opacity="1" fill-rule="nonzero"/><path fill="#ffa203" d="M 504.40625 346.757812 L 504.40625 355.109375 L 577.113281 355.109375 L 577.113281 338.40625 L 504.40625 338.40625 Z M 504.40625 346.757812 " fill-opacity="1" fill-rule="nonzero"/><path fill="#ffa203" d="M 521.109375 377.707031 L 521.109375 389.5 L 526.316406 395.296875 C 530.050781 399.617188 532.113281 401.09375 534.175781 401.191406 C 536.828125 401.289062 536.828125 401.289062 536.828125 408.65625 L 536.828125 416.027344 L 547.832031 416.027344 L 547.441406 408.753906 L 547.144531 401.386719 L 550.191406 400.894531 C 552.15625 400.503906 554.710938 398.539062 557.757812 395 L 562.375 389.597656 L 562.375 365.917969 L 521.109375 365.917969 Z M 521.109375 377.707031 " fill-opacity="1" fill-rule="nonzero"/><path fill="#ffa203" d="M 718.300781 439.605469 C 723.214844 444.226562 733.628906 454.050781 741.488281 461.515625 L 755.734375 474.976562 L 792.582031 474.78125 L 829.523438 474.488281 L 818.519531 468.199219 C 812.425781 464.757812 795.824219 455.230469 781.476562 447.074219 L 755.441406 432.238281 L 709.457031 431.253906 Z M 718.300781 439.605469 " fill-opacity="1" fill-rule="nonzero"/><path fill="#ffa203" d="M 777.546875 431.84375 C 777.546875 432.140625 778.726562 432.925781 780.296875 433.613281 C 781.773438 434.300781 794.054688 441.082031 807.515625 448.644531 C 821.074219 456.308594 832.371094 462.695312 832.863281 462.894531 C 833.257812 463.089844 833.550781 456.210938 833.550781 447.566406 L 833.550781 431.84375 L 805.550781 431.550781 C 790.125 431.355469 777.546875 431.550781 777.546875 431.84375 Z M 777.546875 431.84375 " fill-opacity="1" fill-rule="nonzero"/><path fill="#ffa203" d="M 410.574219 435.773438 C 385.714844 450.414062 351.621094 470.261719 347.988281 472.226562 L 343.761719 474.488281 L 369.996094 474.78125 L 396.230469 474.976562 L 408.609375 466.136719 C 418.730469 458.863281 453.804688 433.21875 455.179688 432.042969 C 455.378906 431.941406 447.027344 431.746094 436.511719 431.746094 L 417.453125 431.746094 Z M 410.574219 435.773438 " fill-opacity="1" fill-rule="nonzero"/><path fill="#ffa203" d="M 463.140625 440.195312 C 456.949219 444.8125 444.960938 453.558594 436.613281 459.75 C 428.261719 465.839844 420.300781 471.734375 418.925781 472.816406 L 416.46875 474.878906 L 469.722656 474.976562 L 522.878906 474.976562 L 526.316406 469.769531 C 528.183594 467.019531 534.371094 457.292969 540.070312 448.15625 L 550.484375 431.746094 L 512.460938 431.746094 L 474.4375 431.84375 Z M 463.140625 440.195312 " fill-opacity="1" fill-rule="nonzero"/><path fill="#ffa203" d="M 550.289062 453.363281 L 536.925781 474.976562 L 631.152344 474.976562 L 629.777344 471.734375 C 629.089844 470.066406 624.765625 460.339844 620.34375 450.121094 L 612.1875 431.746094 L 563.652344 431.746094 Z M 550.289062 453.363281 " fill-opacity="1" fill-rule="nonzero"/><path fill="#ffa203" d="M 625.257812 432.238281 C 625.257812 433.121094 643.136719 473.503906 643.824219 474.289062 C 644.21875 474.683594 665.636719 474.878906 691.378906 474.78125 L 738.34375 474.488281 L 715.746094 453.066406 L 693.148438 431.746094 L 659.152344 431.746094 C 640.484375 431.746094 625.257812 431.941406 625.257812 432.238281 Z M 625.257812 432.238281 " fill-opacity="1" fill-rule="nonzero"/><g clip-path="url(#5a6e6688df)"><path fill="#ffa203" d="M 287.265625 502.488281 L 287.265625 518.210938 L 1032.023438 518.210938 L 1032.023438 486.769531 L 287.265625 486.769531 Z M 287.265625 502.488281 " fill-opacity="1" fill-rule="nonzero"/></g><g clip-path="url(#5f28d574d5)"><path fill="#ffa203" d="M 653.554688 529.703125 L 316.742188 530 L 316.742188 677.378906 L 352.113281 677.378906 L 352.113281 709.800781 L 407.136719 709.800781 L 407.136719 677.378906 L 908.222656 677.378906 L 908.222656 709.800781 L 963.246094 709.800781 L 963.246094 677.378906 L 999.695312 677.378906 L 999.207031 603.394531 L 998.714844 529.507812 L 994.488281 529.507812 C 992.132812 529.507812 838.757812 529.605469 653.554688 529.703125 Z M 653.554688 529.703125 " fill-opacity="1" fill-rule="nonzero"/></g></svg>