<svg xmlns="http://www.w3.org/2000/svg" xmlns:xlink="http://www.w3.org/1999/xlink" width="1920" zoomAndPan="magnify" viewBox="0 0 1440 809.999993" height="1080" preserveAspectRatio="xMidYMid meet" version="1.0"><path fill="#ffc7c7" d="M 1108.171875 182.289062 C 1106.136719 168.546875 1098.6875 158.503906 1086.789062 151.78125 C 1071.667969 143.238281 1055.496094 141.105469 1038.257812 140.429688 C 1008.742188 139.273438 980.449219 144.722656 953.636719 156.125 C 899.035156 179.339844 848.042969 208.71875 803.160156 247.863281 C 775.527344 271.964844 753.667969 300.542969 738.839844 334.25 C 732.5625 313.359375 727.777344 301.808594 725.667969 297.125 C 727.066406 295.765625 728.273438 294.203125 729.230469 292.484375 C 729.234375 292.472656 729.238281 292.464844 729.242188 292.457031 C 729.542969 291.917969 729.8125 291.363281 730.0625 290.796875 C 730.082031 290.753906 730.105469 290.714844 730.121094 290.671875 C 730.351562 290.140625 730.546875 289.597656 730.730469 289.046875 C 730.761719 288.960938 730.796875 288.878906 730.824219 288.792969 C 730.988281 288.28125 731.117188 287.753906 731.238281 287.222656 C 731.265625 287.09375 731.308594 286.96875 731.335938 286.839844 C 731.441406 286.328125 731.515625 285.800781 731.582031 285.273438 C 731.601562 285.121094 731.636719 284.972656 731.652344 284.820312 C 731.722656 284.136719 731.757812 283.445312 731.757812 282.742188 C 731.757812 282.039062 731.722656 281.34375 731.648438 280.65625 C 731.640625 280.558594 731.617188 280.464844 731.605469 280.363281 C 731.535156 279.773438 731.449219 279.1875 731.332031 278.613281 C 731.324219 278.582031 731.3125 278.550781 731.304688 278.515625 C 730.453125 274.542969 728.417969 271.011719 725.589844 268.292969 C 734.957031 244.914062 755.464844 204.960938 792.484375 182.585938 C 794.671875 181.265625 795.371094 178.421875 794.046875 176.238281 C 792.722656 174.050781 789.875 173.351562 787.691406 174.675781 C 748.695312 198.246094 727.371094 238.828125 717.417969 263.515625 C 716.597656 263.269531 715.753906 263.089844 714.898438 262.953125 C 714.695312 262.917969 714.492188 262.886719 714.289062 262.859375 C 713.996094 262.820312 713.703125 262.78125 713.40625 262.757812 C 712.832031 262.707031 712.253906 262.671875 711.664062 262.671875 C 709.664062 262.671875 707.742188 262.988281 705.921875 263.535156 C 695.972656 238.851562 674.644531 198.25 635.636719 174.675781 C 633.453125 173.351562 630.605469 174.050781 629.28125 176.238281 C 627.960938 178.421875 628.660156 181.265625 630.847656 182.585938 C 667.875 204.964844 688.386719 244.9375 697.746094 268.3125 C 693.949219 271.960938 691.566406 277.066406 691.566406 282.742188 C 691.566406 288.386719 693.90625 293.476562 697.660156 297.125 C 695.550781 301.808594 690.765625 313.359375 684.484375 334.25 C 669.65625 300.539062 647.800781 271.964844 620.164062 247.863281 C 575.285156 208.71875 524.289062 179.339844 469.6875 156.121094 C 442.875 144.722656 414.582031 139.269531 385.066406 140.429688 C 367.828125 141.105469 351.65625 143.238281 336.535156 151.78125 C 324.636719 158.5 317.1875 168.546875 315.152344 182.289062 C 313.003906 196.792969 315.71875 210.828125 321.238281 223.972656 C 329.722656 244.183594 339.222656 263.984375 348.742188 283.742188 C 354.390625 295.460938 358.566406 307.5 360.332031 320.378906 C 362.578125 336.730469 364.171875 353.207031 367.238281 369.402344 C 374.757812 409.113281 412.566406 442.863281 458.667969 436.234375 C 459.667969 436.089844 460.703125 436.214844 460.75 436.214844 C 449.183594 445.925781 437.167969 455.683594 425.546875 465.890625 C 417.5625 472.902344 413.425781 482.207031 411.710938 492.644531 C 409.429688 506.507812 411.378906 520.027344 415.40625 533.242188 C 427.683594 573.53125 450.691406 607.226562 480.160156 636.796875 C 491.765625 648.4375 504.582031 658.535156 519.585938 665.644531 C 528.542969 669.894531 542.527344 670.253906 552.347656 668.714844 C 573.476562 665.40625 587.121094 657.152344 603.964844 644.367188 C 620.355469 631.929688 633.160156 616.179688 645.460938 599.925781 C 663.429688 576.183594 680.519531 551.917969 692.5 524.546875 L 692.5 524.5625 C 692.5 524.5625 693.863281 609.132812 711.660156 609.132812 C 729.460938 609.132812 730.820312 524.5625 730.820312 524.5625 L 730.824219 524.546875 C 742.800781 551.917969 759.890625 576.183594 777.859375 599.925781 C 790.160156 616.175781 802.964844 631.929688 819.355469 644.367188 C 836.203125 657.152344 849.847656 665.40625 870.972656 668.714844 C 880.792969 670.253906 894.777344 669.894531 903.738281 665.644531 C 918.738281 658.535156 931.558594 648.4375 943.164062 636.796875 C 972.632812 607.226562 995.636719 573.53125 1007.914062 533.242188 C 1011.941406 520.027344 1013.890625 506.507812 1011.613281 492.644531 C 1009.894531 482.203125 1005.757812 472.902344 997.773438 465.890625 C 986.15625 455.683594 974.136719 445.925781 962.570312 436.214844 C 962.617188 436.214844 963.652344 436.089844 964.652344 436.234375 C 1010.753906 442.863281 1048.5625 409.117188 1056.082031 369.402344 C 1059.148438 353.207031 1060.742188 336.730469 1062.988281 320.378906 C 1064.753906 307.5 1068.929688 295.460938 1074.578125 283.742188 C 1084.101562 263.984375 1093.597656 244.183594 1102.082031 223.972656 C 1107.605469 210.828125 1110.324219 196.792969 1108.171875 182.289062 Z M 1108.171875 182.289062 " fill-opacity="1" fill-rule="nonzero"/><path fill="#ff8888" d="M 794.046875 176.234375 C 792.71875 174.046875 789.871094 173.351562 787.691406 174.671875 C 748.683594 198.246094 727.355469 238.851562 717.40625 263.535156 C 715.585938 262.984375 713.664062 262.667969 711.664062 262.667969 C 709.660156 262.667969 707.742188 262.984375 705.917969 263.535156 C 695.96875 238.851562 674.640625 198.25 635.636719 174.671875 C 633.453125 173.351562 630.605469 174.050781 629.28125 176.234375 C 627.957031 178.417969 628.65625 181.261719 630.84375 182.585938 C 667.871094 204.964844 688.382812 244.9375 697.742188 268.308594 C 693.945312 271.957031 691.566406 277.0625 691.566406 282.742188 C 691.566406 288.386719 693.902344 293.476562 697.65625 297.125 C 695.546875 301.808594 690.761719 313.359375 684.484375 334.246094 L 692.5 524.566406 C 692.5 524.566406 693.859375 609.136719 711.660156 609.136719 C 729.457031 609.136719 730.820312 524.566406 730.820312 524.566406 L 738.832031 334.246094 C 732.554688 313.359375 727.769531 301.808594 725.660156 297.125 C 729.414062 293.476562 731.753906 288.386719 731.753906 282.742188 C 731.753906 277.0625 729.371094 271.957031 725.574219 268.308594 C 734.933594 244.9375 755.445312 204.964844 792.472656 182.585938 C 794.667969 181.265625 795.367188 178.417969 794.046875 176.234375 Z M 794.046875 176.234375 " fill-opacity="1" fill-rule="nonzero"/></svg>